<svg width="58" height="28" viewBox="0 0 58 28" fill="none" xmlns="http://www.w3.org/2000/svg">
<path d="M40.2 3.2998V7.89981H41.7999C42.7 7.89981 43.4 8.59981 43.4 9.39981C43.4 10.1998 42.7 10.9998 41.7999 10.9998H40.2V16.9998H41.7999C42.7 16.9998 43.4 17.6998 43.4 18.4998C43.4 19.2998 42.7 19.9998 41.7999 19.9998H40.2V24.5998H45C45.9 24.5998 46.5999 23.8998 46.5999 23.0998V4.89981C46.5999 4.09981 45.9 3.39981 45 3.39981H40.2V3.2998ZM22.6 3.2998C21.7 3.2998 21 3.9998 21 4.7998V23.0998C21 23.8998 21.7 24.5998 22.6 24.5998H37V3.2998H22.6ZM14.6 18.5998H17.7999V9.49981H14.6V18.5998ZM51.4 9.39981H49.7999V18.4998H51.4V9.39981ZM49.7999 4.89981V6.39981H53C53.9 6.39981 54.5999 7.09981 54.5999 7.89981V12.4998H56.1999C57.0999 12.4998 57.8 13.1998 57.8 13.9998C57.8 14.7998 57.0999 15.4998 56.1999 15.4998H54.5999V20.0998C54.5999 20.8998 53.9 21.5998 53 21.5998H49.7999V23.0998C49.7999 25.5998 47.5999 27.6998 45 27.6998H22.6C20 27.6998 17.7999 25.6998 17.7999 23.0998V21.5998H13C12.1 21.5998 11.4 20.8998 11.4 20.0998V15.4998H1.79995C0.899952 15.4998 0.199951 14.7998 0.199951 13.9998C0.199951 13.1998 0.899952 12.4998 1.79995 12.4998H11.4V7.89981C11.4 7.09981 12.1 6.39981 13 6.39981H17.7999V4.89981C17.7999 2.39981 20 0.299805 22.6 0.299805H45C47.7 0.299805 49.7999 2.29981 49.7999 4.89981Z" fill="#4E4B66"/>
</svg>
